<?xml version="1.0" encoding="UTF-8" standalone="no"?>
<!-- Created with Inkscape (http://www.inkscape.org/) -->

<svg
   xmlns:dc="http://purl.org/dc/elements/1.1/"
   xmlns:cc="http://creativecommons.org/ns#"
   xmlns:rdf="http://www.w3.org/1999/02/22-rdf-syntax-ns#"
   xmlns:svg="http://www.w3.org/2000/svg"
   xmlns="http://www.w3.org/2000/svg"
   xmlns:sodipodi="http://sodipodi.sourceforge.net/DTD/sodipodi-0.dtd"
   xmlns:inkscape="http://www.inkscape.org/namespaces/inkscape"
   width="184.43495mm"
   height="55.968739mm"
   viewBox="0 0 653.50967 198.31443"
   id="svg2"
   version="1.1"
   inkscape:version="0.91 r13725"
   sodipodi:docname="logo-text.svg">
  <defs
     id="defs4" />
  <sodipodi:namedview
     id="base"
     pagecolor="#ffffff"
     bordercolor="#666666"
     borderopacity="1.0"
     inkscape:pageopacity="0.0"
     inkscape:pageshadow="2"
     inkscape:zoom="0.57394688"
     inkscape:cx="24.369568"
     inkscape:cy="-190.68987"
     inkscape:document-units="px"
     inkscape:current-layer="layer1"
     showgrid="false"
     inkscape:window-width="1440"
     inkscape:window-height="806"
     inkscape:window-x="0"
     inkscape:window-y="1"
     inkscape:window-maximized="1"
     fit-margin-top="0"
     fit-margin-left="0"
     fit-margin-right="0"
     fit-margin-bottom="0" />
  <metadata
     id="metadata7">
    <rdf:RDF>
      <cc:Work
         rdf:about="">
        <dc:format>image/svg+xml</dc:format>
        <dc:type
           rdf:resource="http://purl.org/dc/dcmitype/StillImage" />
        <dc:title></dc:title>
      </cc:Work>
    </rdf:RDF>
  </metadata>
  <g
     inkscape:label="Layer 1"
     inkscape:groupmode="layer"
     id="layer1"
     transform="translate(-44.513728,-67.483946)">
    <g
       id="g4299">
      <path
         sodipodi:nodetypes="ccccccccsccccccccccccccccccccccccsccccccccccccccccccccccccccccccccccccsssssscscsscccscsccsscsscccsscsscsccccs"
         inkscape:connector-curvature="0"
         id="path5"
         d="m 52.312768,67.484595 c -7.47161,14.586714 -4.790177,34.194765 10.804044,47.703515 7.66602,8.00089 22.224888,11.83285 42.661618,23.03436 10.13213,5.21354 15.68893,15.10304 20.2117,27.97005 -8.45505,-23.2766 -42.227481,-27.52989 -69.010852,-16.71502 -6.802263,2.75165 -6.511707,3.69764 -12.46555,7.49276 14.130065,-6.02094 38.324873,-1.58509 49.07112,9.97812 3.645324,3.32421 6.887432,6.62892 13.797962,18.33662 -0.60059,1.00591 -0.96945,2.00895 -0.96945,2.96457 l 0,0.0299 c 4.5e-4,0.0328 0.57209,0.26823 1.26915,0.52294 l 14.07129,5.13897 c 0.69749,0.2547 1.35324,1.06515 1.4581,1.8 l 1.31923,7.1912 c 0.16471,0.72407 -0.14597,1.73057 -0.68905,2.23683 l -11.14454,10.37899 c -0.54314,0.50625 -0.7371,1.47347 -0.43065,2.14981 l 6.07851,11.78437 c 0.3744,0.64127 1.27324,1.03303 1.99775,0.87012 l 14.67862,-3.29765 c 0.72451,-0.16291 1.71905,0.15876 2.21044,0.71542 l 5.41055,5.62677 c 0.53684,0.513 0.82609,1.52078 0.64249,2.24033 l -3.73536,14.64696 c -0.1836,0.71955 0.17946,1.63293 0.80683,2.03028 l 11.45831,6.4582 c 0.66465,0.3312 1.63529,0.16884 2.15683,-0.35946 l 10.62861,-10.77451 c 0.52155,-0.52875 1.53492,-0.80345 2.25176,-0.61085 l 7.55772,1.68046 c 0.7308,0.1305 1.52161,0.81319 1.75605,1.51789 l 4.74257,14.24179 c 0.23446,0.70426 1.03378,1.29809 1.77628,1.31924 0,0 0.39775,0.0108 1.27705,0.0108 4.55894,0 12.02872,-0.97646 12.02872,-0.97646 0.7362,-0.0964 1.46376,-0.77004 1.6163,-1.49679 l 3.13945,-14.91855 c 0.153,-0.72674 0.85406,-1.51456 1.5583,-1.7499 l 6.64893,-2.5207 c 0.68311,-0.2916 1.71483,-0.14851 2.29308,0.31728 l 11.66396,9.39638 c 0.57825,0.46575 1.55401,0.50593 2.16827,0.0887 l 10.94853,-8.3039 c 0.567,-0.47971 0.81522,-1.43921 0.55107,-2.13312 l -5.46064,-14.34021 c -0.26415,-0.6939 -0.10356,-1.73803 0.35683,-2.32033 l 3.61494,-4.92802 c 0.4176,-0.6138 1.36301,-1.05172 2.10147,-0.97207 l 14.92294,1.60225 c 0.73846,0.0792 1.5835,-0.41425 1.87735,-1.09601 l 4.8876,-13.36728 c 0.21689,-0.71009 -0.0941,-1.65211 -0.69171,-2.09266 l -12.38466,-9.13975 c -0.5976,-0.441 -1.02867,-1.40696 -0.95802,-2.1463 l 0.32168,-5.08272 c 0.0238,-0.74205 0.58649,-1.62126 1.25069,-1.95381 l 13.48506,-6.75351 c 0.66376,-0.33254 1.11149,-1.2036 0.99404,-1.9371 L 257.7865,164.6441 c -0.1989,-0.71551 -0.96787,-1.33963 -1.70857,-1.38779 l -15.33604,-0.99228 c -0.74115,-0.0481 -1.6225,-0.6283 -1.95821,-1.29024 l -2.08565,-3.83468 c -0.37351,-0.64169 -0.36923,-1.68967 0.008,-2.32822 l 7.74405,-13.05703 c 0.3789,-0.63856 0.28876,-1.6186 -0.2004,-2.17706 L 233.86844,128.99122 C 220.06668,103.35676 181.57768,106.00837 142.11415,106.80851 118.96004,107.2321 93.896368,108.10844 72.651549,101.82774 52.219619,96.033408 50.665382,79.711454 52.312094,67.483946 Z M 183.7615,143.34713 c 24.95926,0 45.1925,20.23322 45.1925,45.19246 0,24.95926 -20.23324,45.19336 -45.1925,45.19336 -24.95924,0 -45.19246,-20.23322 -45.19246,-45.19247 0,-24.95969 20.23322,-45.19335 45.19246,-45.19335 z m -0.38143,6.54168 c -5.19433,0 -10.95469,1.42383 -17.28281,4.2715 -14.02735,8.25292 -21.04102,19.82811 -21.04102,34.72557 0,7.88379 2.38536,15.26662 7.15781,22.14845 8.3584,10.75781 18.58975,16.13671 30.6923,16.13671 l 1.58113,0 c 3.77052,0 7.72646,-0.67236 11.86612,-2.01708 9.9668,-3.84961 17.13867,-10.04591 21.51562,-18.58888 2.9795,-4.82518 4.46923,-12.22118 4.46923,-22.18798 3e-5,-0.44824 -0.14597,-0.67238 -0.43592,-0.67238 l -30.01817,0 c -1.87207,-3.13769 -4.41649,-4.70653 -7.63329,-4.70653 l -1.77979,0 -1.34472,0.2373 c -4.77247,1.89844 -7.15958,4.95703 -7.15958,9.17579 l 0,0.4746 c 0,1.13379 0.29092,2.39943 0.87098,3.79688 2.2676,3.74414 4.81202,5.61621 7.63332,5.61621 l 1.77979,0 c 3.2168,0 5.76122,-1.56885 7.63329,-4.70654 l 10.32188,0 -1.58115,4.23192 c -4.48243,6.56544 -9.7163,9.84816 -15.70166,9.84816 l -2.01708,0 c -1.95119,0 -3.96827,-0.36914 -6.05128,-1.10743 -8.20019,-3.82323 -12.3003,-9.7163 -12.3003,-17.6792 l 0,-0.67235 c 0,-3.13771 0.81651,-6.13037 2.45127,-8.97804 4.11329,-6.56542 9.7172,-9.84814 16.80996,-9.84814 4.71974,0 9.12305,1.85889 13.20996,5.57667 l 20.1709,-5.14162 0,-0.43505 -2.92764,-4.27148 c -8.35839,-10.15136 -18.65477,-15.22706 -30.88915,-15.22706 z"
         style="fill:#ff6600" />
      <g
         transform="translate(-12,-9.719659)"
         id="g4258">
        <g
           style="font-style:normal;font-weight:normal;font-size:40px;line-height:125%;font-family:sans-serif;letter-spacing:0px;word-spacing:0px;fill:#ff6600;fill-opacity:1;stroke:none;stroke-width:1px;stroke-linecap:butt;stroke-linejoin:miter;stroke-opacity:1"
           id="text4136"
           transform="translate(-16,-0.801898)">
          <path
             inkscape:connector-curvature="0"
             d="m 358.99659,191.44503 -16.74,0 0,9.36 3.87,0 c 0,2.52 -0.09,11.07 -0.09,14.76 0,0 -4.05,0 -8.37,0 -13.59,0 -22.05,-13.59 -22.05,-25.65 0,-11.79 6.57,-21.24 19.26,-22.86 4.32,-0.63 9.18,-0.45 14.76,0.54 l 0,2.97 9.36,0 0,-10.17 c -7.56,-3.06 -16.2,-4.59 -24.75,-4.59 -12.06,0 -22.86,5.49 -28.26,16.74 -4.05,8.91 -4.59,22.5 -1.44,31.59 4.77,14.4 17.73,21.15 33.12,21.15 l 21.33,0 0,-33.84 z"
             style="font-style:normal;font-variant:normal;font-weight:bold;font-stretch:normal;font-size:90px;font-family:Musket;-inkscape-font-specification:'Musket Bold';fill:#ff6600"
             id="path4198" />
          <path
             inkscape:connector-curvature="0"
             d="m 388.30144,225.28503 0,-9.72 -4.23,0 0,-51.57 c 0,-7.92 -11.7,-8.46 -17.1,-6.21 l 0,9.72 c 0,0 4.23,-0.09 4.23,2.88 l 0,54.9 17.1,0 z"
             style="font-style:normal;font-variant:normal;font-weight:bold;font-stretch:normal;font-size:90px;font-family:Musket;-inkscape-font-specification:'Musket Bold';fill:#ff6600"
             id="path4200" />
          <path
             inkscape:connector-curvature="0"
             d="m 424.59956,180.28503 0,9.72 4.14,0 0,17.73 c 0,9.81 -16.92,10.98 -16.92,0 l 0,-27.45 -17.1,0 0,9.72 4.23,0 c 0,5.13 0,12.6 0,19.71 0,16.02 16.29,16.47 16.29,16.47 10.98,0 14.49,-7.56 14.49,-7.56 0,8.64 10.08,8.55 15.75,6.66 l 0,-9.72 c -3.24,0 -3.87,-1.62 -3.87,-2.88 l 0,-32.4 -17.01,0 z"
             style="font-style:normal;font-variant:normal;font-weight:bold;font-stretch:normal;font-size:90px;font-family:Musket;-inkscape-font-specification:'Musket Bold';fill:#ff6600"
             id="path4202" />
          <path
             inkscape:connector-curvature="0"
             d="m 474.63534,179.65503 c -14.22,0 -22.23,12.06 -22.23,23.76 0,11.43 7.92,22.77 21.87,22.77 7.29,0 14.22,-1.98 19.89,-5.76 l -4.5,-7.56 c -4.32,2.61 -7.29,3.96 -14.4,3.78 0,0 -9.99,-0.36 -9.99,-9.63 l 30.06,0 c 0,0 5.13,-27.36 -20.7,-27.36 z m -9.36,19.8 c 0,-5.67 3.87,-9.36 10.26,-9.36 4.77,0 8.55,3.78 8.55,9.36 l -18.81,0 z"
             style="font-style:normal;font-variant:normal;font-weight:bold;font-stretch:normal;font-size:90px;font-family:Musket;-inkscape-font-specification:'Musket Bold';fill:#ff6600"
             id="path4204" />
          <path
             inkscape:connector-curvature="0"
             d="m 568.00191,208.54503 c 0,9.36 -17.64,9.18 -17.64,0.63 l 0,-22.41 c 0,-7.47 -11.52,-8.91 -17.01,-6.48 l 0,9.72 c 2.25,0 3.87,0.9 4.14,2.52 l 0,16.29 c 0,9.09 -17.19,9.27 -17.19,-0.81 l 0,-21.51 c 0,-7.74 -11.79,-8.37 -17.1,-6.21 l 0,9.72 c 4.41,0 4.23,2.7 4.23,2.7 l 0,17.73 c 0,11.52 9.72,15.75 21.6,15.75 5.94,0 11.34,-0.99 15.21,-3.33 3.87,2.34 9.18,3.33 14.94,3.33 11.97,0 21.69,-4.32 21.69,-15.84 l 0,-30.06 -17.19,0 0,9.72 4.32,0 0,18.54 z"
             style="font-style:normal;font-variant:normal;font-weight:bold;font-stretch:normal;font-size:90px;font-family:Musket;-inkscape-font-specification:'Musket Bold';fill:#ff6600"
             id="path4206" />
          <path
             inkscape:connector-curvature="0"
             d="m 605.36737,226.18503 c 9.72,0 14.22,-5.76 14.22,-7.02 0,7.83 10.89,8.55 15.75,6.12 l 0,-9.45 c -3.24,0 -3.78,-1.8 -3.78,-3.06 l 0,-22.77 3.78,0 0,-9.72 -15.75,0 0,4.86 c -1.71,-1.98 -6.93,-5.49 -14.4,-5.49 0,0 -16.11,0.09 -16.2,15.93 l 0,14.31 c 0.09,15.84 16.38,16.29 16.38,16.29 z m 14.22,-27.99 0,9.9 c 0,9.54 -17.73,10.98 -17.73,0 l 0,-9.9 c 0.72,-11.61 17.73,-9.45 17.73,0 z"
             style="font-style:normal;font-variant:normal;font-weight:bold;font-stretch:normal;font-size:90px;font-family:Musket;-inkscape-font-specification:'Musket Bold';fill:#ff6600"
             id="path4208" />
          <path
             inkscape:connector-curvature="0"
             d="m 644.53003,180.28503 0,9.72 c 3.24,0 3.87,1.44 3.87,2.7 l 0,32.58 17.19,0 0,-9.72 -4.32,0 0,-12.15 c 0,-14.94 17.64,-13.41 17.64,-13.41 l 0,-9.72 c -2.25,-0.54 -4.14,-0.63 -4.14,-0.63 -10.98,0 -14.49,7.11 -14.49,7.11 0,-8.19 -10.17,-8.37 -15.75,-6.48 z"
             style="font-style:normal;font-variant:normal;font-weight:bold;font-stretch:normal;font-size:90px;font-family:Musket;-inkscape-font-specification:'Musket Bold';fill:#ff6600"
             id="path4210" />
          <path
             inkscape:connector-curvature="0"
             d="m 704.90878,179.65503 c -14.22,0 -22.23,12.06 -22.23,23.76 0,11.43 7.92,22.77 21.87,22.77 7.29,0 14.22,-1.98 19.89,-5.76 l -4.5,-7.56 c -4.32,2.61 -7.29,3.96 -14.4,3.78 0,0 -9.99,-0.36 -9.99,-9.63 l 30.06,0 c 0,0 5.13,-27.36 -20.7,-27.36 z m -9.36,19.8 c 0,-5.67 3.87,-9.36 10.26,-9.36 4.77,0 8.55,3.78 8.55,9.36 l -18.81,0 z"
             style="font-style:normal;font-variant:normal;font-weight:bold;font-stretch:normal;font-size:90px;font-family:Musket;-inkscape-font-specification:'Musket Bold';fill:#ff6600"
             id="path4212" />
        </g>
      </g>
    </g>
  </g>
</svg>
