<?xml version="1.0" encoding="UTF-8" standalone="no"?>
<!-- Generator: Adobe Illustrator 17.0.0, SVG Export Plug-In . SVG Version: 6.00 Build 0)  -->

<svg
   xmlns:dc="http://purl.org/dc/elements/1.1/"
   xmlns:cc="http://creativecommons.org/ns#"
   xmlns:rdf="http://www.w3.org/1999/02/22-rdf-syntax-ns#"
   xmlns:svg="http://www.w3.org/2000/svg"
   xmlns="http://www.w3.org/2000/svg"
   xmlns:sodipodi="http://sodipodi.sourceforge.net/DTD/sodipodi-0.dtd"
   xmlns:inkscape="http://www.inkscape.org/namespaces/inkscape"
   version="1.1"
   id="Livello_1"
   x="0px"
   y="0px"
   width="480.89124"
   height="440.69861"
   viewBox="0 0 480.89123 440.6986"
   enable-background="new 0 0 850.39 793.7"
   xml:space="preserve"
   inkscape:version="0.91 r13725"
   sodipodi:docname="logo.svg"><metadata
     id="metadata13"><rdf:RDF><cc:Work
         rdf:about=""><dc:format>image/svg+xml</dc:format><dc:type
           rdf:resource="http://purl.org/dc/dcmitype/StillImage" /><dc:title></dc:title></cc:Work></rdf:RDF></metadata><defs
     id="defs11" /><sodipodi:namedview
     pagecolor="#ffffff"
     bordercolor="#666666"
     borderopacity="1"
     objecttolerance="10"
     gridtolerance="10"
     guidetolerance="10"
     inkscape:pageopacity="0"
     inkscape:pageshadow="2"
     inkscape:window-width="1440"
     inkscape:window-height="806"
     id="namedview9"
     showgrid="false"
     inkscape:zoom="0.29734155"
     inkscape:cx="855.55366"
     inkscape:cy="-199.1178"
     inkscape:window-x="0"
     inkscape:window-y="1"
     inkscape:window-maximized="1"
     inkscape:current-layer="Livello_1"
     fit-margin-top="0"
     fit-margin-left="0"
     fit-margin-right="0"
     fit-margin-bottom="0" /><g
     id="g3"
     transform="translate(10.06994,-78.41662)"><path
       style="fill:#ff6600"
       d="m 343.49326,313.95765 c -16.60357,32.41491 -10.64483,75.98836 24.00901,106.00778 17.03559,17.77977 49.38861,26.29526 94.80354,51.18749 22.51584,11.58564 34.86431,33.56232 44.91489,62.15567 -18.789,-51.7258 -93.83883,-61.17757 -153.35742,-37.14453 -15.11614,6.11483 -14.47046,8.21703 -27.70121,16.65062 31.40016,-13.37989 85.16637,-3.52245 109.04691,22.1736 8.10072,7.38713 15.30541,14.73092 30.66211,40.74805 -1.33463,2.23533 -2.15429,4.4643 -2.15429,6.58789 l 0,0.0664 c 0.001,0.073 1.27131,0.59611 2.82031,1.16211 l 31.26953,11.41993 c 1.55,0.566 3.00723,2.367 3.24024,4 l 2.93164,15.98046 c 0.366,1.60902 -0.32425,3.84571 -1.53125,4.97071 l -24.76563,23.06445 c -1.207,1.125 -1.63803,3.27435 -0.95703,4.77734 l 13.50781,26.1875 c 0.832,1.42502 2.82945,2.2956 4.43946,1.9336 l 32.61914,-7.32813 c 1.61,-0.362 3.82012,0.35285 4.9121,1.58985 l 12.02344,12.5039 c 1.193,1.14 1.83574,3.37952 1.42774,4.97852 l -8.30078,32.54883 c -0.408,1.599 0.39896,3.62872 1.79296,4.51172 l 25.4629,14.35156 c 1.47699,0.736 3.63396,0.37517 4.79296,-0.79883 l 23.61914,-23.94336 c 1.159,-1.175 3.41091,-1.78542 5.00391,-1.35742 l 16.79492,3.73437 c 1.624,0.29 3.38135,1.80705 3.90235,3.37305 l 10.53906,31.64844 c 0.521,1.565 2.29726,2.88464 3.94726,2.93164 0,0 0.8839,0.0254 2.8379,0.0254 10.13099,0 26.73046,-2.16992 26.73046,-2.16992 1.636,-0.214 3.2528,-1.71117 3.5918,-3.32617 l 6.97656,-33.15235 c 0.34,-1.615 1.89789,-3.36567 3.46289,-3.88867 l 14.77539,-5.60156 c 1.518,-0.648 3.81071,-0.32992 5.09571,0.70508 l 25.91992,20.88086 c 1.285,1.035 3.45336,1.12426 4.81836,0.19726 l 24.33008,-18.45312 c 1.26,-1.066 1.81161,-3.19824 1.22461,-4.74024 l -12.13477,-31.86719 c -0.587,-1.542 -0.23003,-3.86225 0.79297,-5.15625 l 8.0332,-10.95117 c 0.928,-1.364 3.02892,-2.33715 4.66992,-2.16015 l 33.16211,3.56054 c 1.641,0.176 3.51888,-0.92054 4.17188,-2.43554 l 10.86133,-29.70508 c 0.482,-1.578 -0.20911,-3.67139 -1.53711,-4.65039 L 773.4707,601.43164 c -1.328,-0.98 -2.2859,-3.12653 -2.1289,-4.76953 l 0.71484,-11.29492 c 0.053,-1.649 1.3033,-3.6028 2.7793,-4.3418 l 29.96679,-15.00781 c 1.475,-0.739 2.46999,-2.67469 2.20899,-4.30469 l -6.91016,-31.84375 c -0.442,-1.59 -2.15087,-2.97698 -3.79687,-3.08398 l -34.08008,-2.20508 c -1.647,-0.107 -3.60556,-1.39619 -4.35156,-2.86719 l -4.63477,-8.52148 c -0.83,-1.426 -0.82052,-3.75483 0.0215,-5.17383 l 17.20898,-29.01563 c 0.842,-1.419 0.64169,-3.59689 -0.44531,-4.83789 L 746.95313,450.64062 C 716.28257,393.67512 630.75145,399.56763 543.0547,401.3457 491.60114,402.28703 435.90408,404.23445 388.69337,390.27734 343.28777,377.4009 339.8339,341.12991 343.49326,313.95765 Z m 292.1083,168.58337 c 55.465,0 100.42774,44.96273 100.42774,100.42773 0,55.465 -44.96274,100.42969 -100.42774,100.42969 -55.465,0 -100.42773,-44.96274 -100.42773,-100.42774 0,-55.466 44.96273,-100.42968 100.42773,-100.42968 z m -0.84765,14.5371 c -11.54297,10e-6 -24.34375,3.16407 -38.40625,9.49219 -31.17188,18.33984 -46.75782,44.0625 -46.75782,77.16797 0,17.51953 5.30079,33.92578 15.90625,49.21875 18.57422,23.90625 41.31055,35.85938 68.20508,35.85938 l 3.51367,0 c 8.37891,0 17.16992,-1.49415 26.36914,-4.48243 22.14844,-8.55468 38.08594,-22.32421 47.8125,-41.30859 6.6211,-10.72265 9.93164,-27.1582 9.93164,-49.30664 10e-6,-0.99609 -0.32421,-1.49414 -0.96874,-1.49414 l -66.70704,0 c -4.16016,-6.97265 -9.81445,-10.45899 -16.96289,-10.45899 l -3.95507,0 -2.98829,0.52735 c -10.60547,4.21875 -15.91015,11.01562 -15.91015,20.39062 l 0,1.05469 c 0,2.51953 0.64648,5.33203 1.93554,8.4375 5.03906,8.32031 10.69336,12.48047 16.9629,12.48047 l 3.95507,0 c 7.14844,0 12.80273,-3.48633 16.96289,-10.45898 l 22.9375,0 -3.51367,9.40429 c -9.96094,14.58984 -21.5918,21.88477 -34.89258,21.88477 l -4.48242,0 c -4.33594,0 -8.81836,-0.82031 -13.44726,-2.46094 -18.22266,-8.49609 -27.33399,-21.5918 -27.33399,-39.28711 l 0,-1.49414 c 0,-6.97265 1.81446,-13.62304 5.44727,-19.95117 9.14062,-14.58984 21.59375,-21.88477 37.35547,-21.88477 10.48828,0 20.27343,4.13086 29.35546,12.39258 l 44.82422,-11.42578 0,-0.9668 -6.50586,-9.49218 c -18.57422,-22.5586 -41.45507,-33.8379 -68.64257,-33.8379 z"
       transform="translate(-336.23201,-235.54103)"
       id="path5"
       inkscape:connector-curvature="0"
       sodipodi:nodetypes="ccccccccsccccccccccccccccccccccccsccccccccccccccccccccccccccccccccccccsssssscscsscccscsccsscsscccsscsscsccccs" /></g><ellipse
     cx="245.83794"
     cy="8.0423498"
     rx="0"
     ry="2"
     id="ellipse7" /><g
     style="font-style:normal;font-weight:normal;font-size:40px;line-height:125%;font-family:sans-serif;letter-spacing:0px;word-spacing:0px;fill:#000000;fill-opacity:1;stroke:none;stroke-width:1px;stroke-linecap:butt;stroke-linejoin:miter;stroke-opacity:1"
     id="text4141"
     transform="translate(-326.16207,-313.95765)" /><g
     id="g4211"
     transform="matrix(6.1786009,0,0,5.6915674,-136.92711,-180.62007)" /></svg>